# xmcd
#
# Track frame offsets: 
#        150
#        15113
#        30250
#        44936
#        60459
#        78047
#        93596
#        112193
#        131668
#        148781
#        165362
#
# Disc length: 2438 seconds
#
# Revision: 0
# Processed by: cddbd v1.5.2PL0 Copyright (c) Steve Scherf et al.
# Submitted via: ExactAudioCopy v0.95b4
#
DISCID=8609840b
DTITLE=Small Stars - Tijuana Dreams
DYEAR=2006
DGENRE=Country
TTITLE0=Let's Hit The Town
TTITLE1=Love Is Grand
TTITLE2=Twentyfourseven
TTITLE3=Day Job
TTITLE4=Girl Trouble
TTITLE5=Sweet Sweet Sweet
TTITLE6=Carnival
TTITLE7=That's What God Made Whiskey For
TTITLE8=Bombarderos y Pistoleros
TTITLE9=Twenty-One
TTITLE10=Tijuana Dreams
EXTD=
EXTT0=
EXTT1=
EXTT2=
EXTT3=
EXTT4=
EXTT5=
EXTT6=
EXTT7=
EXTT8=
EXTT9=
EXTT10=
PLAYORDER=
